<?xml version="1.0" encoding="utf-8"?>
<!-- Generator: Adobe Illustrator 22.1.0, SVG Export Plug-In . SVG Version: 6.00 Build 0)  -->
<svg version="1.1" id="Layer_1" xmlns="http://www.w3.org/2000/svg" xmlns:xlink="http://www.w3.org/1999/xlink" x="0px" y="0px"
	 viewBox="0 0 177 121" style="enable-background:new 0 0 177 121;" xml:space="preserve">
<style type="text/css">
	.st0{fill:#9C9B9B;}
	.st1{fill:#1D1D1B;}
	.st2{fill:#F08700;}
	.st3{fill:#FFFFFF;}
	.st4{fill:#D22118;}
	.st5{fill:#008ED3;}
</style>
<g>
	<rect x="52" y="41.3" class="st0" width="1.7" height="1.7"/>
	<rect x="54" y="41.3" class="st0" width="1.7" height="1.7"/>
	<rect x="56" y="41.3" class="st0" width="1.7" height="1.7"/>
	<rect x="58" y="41.3" class="st0" width="1.7" height="1.7"/>
	<rect x="52" y="39.3" class="st0" width="1.7" height="1.7"/>
	<rect x="54" y="39.3" class="st0" width="1.7" height="1.7"/>
	<rect x="56" y="39.3" class="st0" width="1.7" height="1.7"/>
	<rect x="58" y="39.3" class="st0" width="1.7" height="1.7"/>
	<rect x="62" y="39.3" class="st0" width="1.7" height="1.7"/>
	<rect x="52" y="37.4" class="st0" width="1.7" height="1.7"/>
	<rect x="54" y="37.4" class="st0" width="1.7" height="1.7"/>
	<rect x="58" y="37.4" class="st0" width="1.7" height="1.7"/>
	<rect x="60" y="37.4" class="st0" width="1.7" height="1.7"/>
	<rect x="62" y="37.4" class="st0" width="1.7" height="1.7"/>
	<rect x="54" y="35.4" class="st0" width="1.7" height="1.7"/>
	<rect x="56" y="35.4" class="st0" width="1.7" height="1.7"/>
	<rect x="58" y="35.4" class="st0" width="1.7" height="1.7"/>
	<rect x="60" y="35.4" class="st0" width="1.7" height="1.7"/>
	<rect x="64" y="35.4" class="st0" width="1.7" height="1.7"/>
	<rect x="54" y="33.5" class="st0" width="1.7" height="1.7"/>
	<rect x="56" y="33.5" class="st0" width="1.7" height="1.7"/>
	<rect x="58" y="33.5" class="st0" width="1.7" height="1.7"/>
	<rect x="60" y="33.5" class="st0" width="1.7" height="1.7"/>
	<rect x="62" y="33.5" class="st0" width="1.7" height="1.7"/>
	<rect x="64" y="33.5" class="st0" width="1.7" height="1.7"/>
	<rect x="66" y="33.5" class="st0" width="1.7" height="1.7"/>
	<rect x="69.9" y="33.5" class="st0" width="1.7" height="1.7"/>
	<rect x="58" y="31.5" class="st0" width="1.7" height="1.7"/>
	<rect x="60" y="31.5" class="st0" width="1.7" height="1.7"/>
	<rect x="64" y="31.5" class="st0" width="1.7" height="1.7"/>
	<rect x="68" y="31.5" class="st0" width="1.7" height="1.7"/>
	<rect x="56" y="29.6" class="st0" width="1.7" height="1.7"/>
	<rect x="58" y="29.6" class="st0" width="1.7" height="1.7"/>
	<rect x="60" y="29.6" class="st0" width="1.7" height="1.7"/>
	<rect x="62" y="29.6" class="st0" width="1.7" height="1.7"/>
	<rect x="64" y="29.6" class="st0" width="1.7" height="1.7"/>
	<rect x="68" y="29.6" class="st0" width="1.7" height="1.7"/>
	<rect x="77.9" y="29.6" class="st0" width="1.7" height="1.7"/>
	<rect x="58" y="27.6" class="st0" width="1.7" height="1.7"/>
	<rect x="62" y="27.6" class="st0" width="1.7" height="1.7"/>
	<rect x="66" y="27.6" class="st0" width="1.7" height="1.7"/>
	<rect x="69.9" y="27.6" class="st0" width="1.7" height="1.7"/>
	<rect x="64" y="25.7" class="st0" width="1.7" height="1.7"/>
	<rect x="68" y="25.7" class="st0" width="1.7" height="1.7"/>
	<rect x="66" y="23.7" class="st0" width="1.7" height="1.7"/>
	<rect x="69.9" y="23.7" class="st0" width="1.7" height="1.7"/>
	<rect x="73.9" y="23.7" class="st0" width="1.7" height="1.7"/>
	<rect x="64" y="21.8" class="st0" width="1.7" height="1.7"/>
	<rect x="73.9" y="19.8" class="st0" width="1.7" height="1.7"/>
	<rect x="79.9" y="19.8" class="st0" width="1.7" height="1.7"/>
	<rect x="73.9" y="17.9" class="st0" width="1.7" height="1.7"/>
	<rect x="73.9" y="15.9" class="st0" width="1.7" height="1.7"/>
	<rect x="75.9" y="14" class="st0" width="1.7" height="1.7"/>
	<rect x="47.4" y="37.5" class="st1" width="4.3" height="0.8"/>
	<path class="st0" d="M51.8,43.3H52h7c-2,2.3-6.8,6.1-17.5,9.9C22.4,60,3.8,51.9,14.7,36.4c10.7-15.2,27.6-18.7,29.4-19
		c1.8-0.3,4.7-0.5,3.3,0c-1.4,0.4-4.1,1.6-4,2c0.1,0.4,1.9,0,2.9-0.2c1-0.1,1,0.6,0.4,0.9c-0.6,0.3-1.1,0-0.7,0.4
		c0.4,0.4,0.2,0.6-0.4,0.9c-0.6,0.3-2.2,0.1-2.8,0.7c-0.6,0.5,1,0.5,2.1,0.1c1.1-0.4,1.4-0.6,2.6-0.6c1.2-0.1,0.1,0.7,0.7,0.9
		c0.6,0.3,3.6-0.3,2.8,0.1c-0.8,0.5,1.5,0.5-0.1,0.9c-1.5,0.4-16.1,2.1-27.2,9.4C12.6,39.9,11.1,55,30,51.2
		c13.8-2.7,19.6-9,21.7-12.3L51.8,43.3L51.8,43.3z M43.3,23.3c-1-0.1-0.9,0.2-1.1,0.3c-0.3,0.2,0.6,0.3,1.4,0.3
		C44.2,23.9,44.2,23.4,43.3,23.3 M42.6,19.9c-0.7-0.1-0.7,0.1-1.6,0.3c-0.9,0.1-1.4,1.1-0.5,1c0.9-0.1,1.3-0.1,2.1-0.5
		C43.4,20.4,42.6,19.9,42.6,19.9"/>
	<path class="st2" d="M27.6,38.2c0-5,4-9,9-9c5,0,9,4,9,9c0,5-4,9-9,9C31.6,47.2,27.6,43.2,27.6,38.2"/>
	<path class="st3" d="M30.5,34.2c-0.4-0.9,0-1.9,0.9-2.3c0.9-0.4,1.9,0,2.3,0.9c0.4,0.9,0,1.9-0.9,2.3
		C31.9,35.5,30.9,35.1,30.5,34.2"/>
	<path class="st0" d="M50.6,17.3c0-0.4-1.7-0.4-2-0.1c-0.3,0.4-1.2,0.2-1.3,0.5c-0.1,0.3,0.8,0.3,1.5,0
		C49.6,17.4,50.6,17.7,50.6,17.3"/>
	<path class="st0" d="M51.9,18.4c-0.3-0.3-2-0.4-2.5-0.1c-0.5,0.3-1.2,0.5-1.5,0.5c-0.3,0,0.1,0.4,1,0.4c0.9,0,0.8-0.2,1.7-0.1
		C51.5,19.3,52.1,18.7,51.9,18.4"/>
	<path class="st0" d="M49.4,20c-0.9,0.2-1.1,0.3-1.6,0.4c-0.5,0.1,0,0.5,1,0.3c1.1-0.2,1.4-0.3,1.9-0.3c0.5,0,0.4-0.5-0.2-0.6
		C49.9,19.8,49.4,20,49.4,20"/>
	<path class="st0" d="M53.3,19.6c-0.3-0.4-1.1-0.1-1.5,0.1c-0.4,0.2-0.3,0.3,0.3,0.4C52.8,20.2,53.3,19.8,53.3,19.6"/>
	<path class="st0" d="M55.6,20.5c-0.2-0.1-2.1,0.1-2.4,0.1c-0.3-0.1-0.7,0.3-1.3,0.3c-0.6,0-1.6,0-1.3,0.4c0.4,0.4,2,0.2,2.7,0
		c0.7-0.1,1.4-0.5,2.1-0.3C56.1,21.1,55.7,20.5,55.6,20.5"/>
	<rect x="3.2" y="37.5" class="st1" width="22.2" height="0.8"/>
	<rect x="36.2" y="50" class="st1" width="0.8" height="22.2"/>
	<rect x="36.2" y="3.9" class="st1" width="0.8" height="22.2"/>
	<rect x="64" y="37.5" class="st1" width="64.5" height="0.8"/>
	<path class="st4" d="M128.4,37.9c0-0.9,0.7-1.6,1.6-1.6c0.9,0,1.6,0.7,1.6,1.6c0,0.9-0.7,1.6-1.6,1.6
		C129.1,39.6,128.4,38.8,128.4,37.9"/>
	<path class="st4" d="M35,2.3c0-0.9,0.7-1.6,1.6-1.6c0.9,0,1.6,0.7,1.6,1.6c0,0.9-0.7,1.6-1.6,1.6C35.7,3.9,35,3.2,35,2.3"/>
	<path class="st1" d="M62.2,66.7c0,1.7-0.5,3-1.6,4c-1,0.9-2.6,1.4-4.7,1.4h-8V55.4H56c2.1,0,3.6,0.4,4.5,1.1
		c0.9,0.8,1.4,1.8,1.4,3.2c0,0.9-0.2,1.6-0.6,2.1c-0.4,0.5-0.9,0.9-1.4,1.2c0.8,0.3,1.4,0.8,1.8,1.4C62,65,62.2,65.8,62.2,66.7
		 M57.3,60.4c0-0.4-0.1-0.7-0.3-0.9c-0.2-0.3-0.6-0.4-1.2-0.4h-3.5v2.7h3.5c0.5,0,0.9-0.1,1.1-0.4C57.2,61.1,57.3,60.8,57.3,60.4
		 M57.7,66.8c0-0.5-0.1-0.9-0.4-1.2c-0.3-0.3-0.7-0.4-1.2-0.4h-3.7v3.3H56c0.6,0,1-0.2,1.3-0.5C57.5,67.7,57.7,67.3,57.7,66.8"/>
	<rect x="64.1" y="55.4" class="st1" width="4.7" height="16.7"/>
	<path class="st1" d="M82.2,72.1l-4-5.5c-0.2-0.3-0.4-0.6-0.7-0.9c-0.3-0.4-0.5-0.8-0.8-1.1c-0.3-0.4-0.5-0.7-0.7-1.1
		c-0.2-0.3-0.4-0.6-0.5-0.8c0,0.2,0.1,0.5,0.1,0.8c0,0.3,0,0.7,0,1.1c0,0.4,0,0.8,0,1.3V67v5.1h-4.4V55.4h4.1l3.7,5
		c0.2,0.3,0.4,0.6,0.7,1c0.3,0.4,0.5,0.8,0.8,1.1c0.3,0.4,0.5,0.7,0.7,1.1c0.2,0.3,0.4,0.6,0.5,0.8c0-0.2-0.1-0.5-0.1-0.8
		c0-0.3,0-0.7-0.1-1.1c0-0.4,0-0.8,0-1.3V60v-4.6h4.4v16.7H82.2z"/>
	<path class="st1" d="M102.3,68.4c-0.4,0.9-0.9,1.7-1.6,2.3c-0.7,0.6-1.4,1-2.3,1.3c-0.9,0.3-1.9,0.4-2.9,0.4c-1.1,0-2-0.1-2.9-0.4
		c-0.9-0.3-1.7-0.7-2.3-1.3c-0.6-0.6-1.1-1.4-1.5-2.3c-0.4-0.9-0.6-2.1-0.6-3.4v-9.6h4.7V65c0,1,0.2,1.8,0.6,2.4
		c0.4,0.6,1.1,0.9,2,0.9c0.9,0,1.6-0.3,2-0.9c0.4-0.6,0.6-1.4,0.6-2.4v-9.6h4.7V65C102.8,66.3,102.6,67.4,102.3,68.4"/>
	<path class="st1" d="M118.4,67c0,1-0.2,1.8-0.5,2.5c-0.3,0.7-0.8,1.2-1.4,1.7c-0.6,0.4-1.3,0.8-2.2,1c-0.8,0.2-1.8,0.3-2.8,0.3
		c-1.4,0-2.7-0.2-3.9-0.6c-1.2-0.4-2.3-0.9-3.2-1.4l2.2-3.6c0.3,0.2,0.7,0.4,1.1,0.6c0.4,0.2,0.8,0.4,1.3,0.5
		c0.4,0.2,0.9,0.3,1.3,0.4c0.5,0.1,0.9,0.1,1.2,0.1c0.8,0,1.4-0.1,1.7-0.2c0.3-0.2,0.5-0.4,0.5-0.8c0-0.2,0-0.3-0.1-0.4
		c-0.1-0.1-0.2-0.3-0.5-0.4c-0.2-0.1-0.5-0.2-0.9-0.4c-0.4-0.1-0.8-0.2-1.4-0.4c-1-0.2-1.9-0.5-2.6-0.8c-0.8-0.3-1.4-0.6-1.9-1
		c-0.5-0.4-0.9-0.9-1.1-1.5c-0.2-0.6-0.4-1.3-0.4-2.1c0-0.8,0.2-1.5,0.5-2.2c0.3-0.7,0.8-1.2,1.3-1.7c0.6-0.5,1.3-0.8,2.1-1.1
		c0.8-0.3,1.7-0.4,2.7-0.4c1.4,0,2.7,0.2,3.7,0.5c1.1,0.3,2,0.8,2.9,1.4l-2.2,3.6c-0.7-0.5-1.5-0.9-2.2-1.2
		c-0.8-0.3-1.6-0.4-2.4-0.4c-0.7,0-1.2,0.1-1.4,0.3c-0.2,0.2-0.3,0.4-0.3,0.7c0,0.2,0,0.3,0.1,0.4c0.1,0.1,0.2,0.2,0.4,0.3
		c0.2,0.1,0.5,0.2,0.8,0.3c0.4,0.1,0.8,0.2,1.3,0.3c1.1,0.3,2,0.5,2.7,0.8c0.8,0.3,1.4,0.7,1.9,1.1c0.5,0.4,0.9,0.9,1.1,1.5
		C118.3,65.5,118.4,66.2,118.4,67"/>
	<path class="st4" d="M35,73.8c0-0.9,0.7-1.6,1.6-1.6c0.9,0,1.6,0.7,1.6,1.6c0,0.9-0.7,1.6-1.6,1.6C35.7,75.4,35,74.7,35,73.8"/>
	<path class="st4" d="M0,37.9c0-0.9,0.7-1.6,1.6-1.6c0.9,0,1.6,0.7,1.6,1.6c0,0.9-0.7,1.6-1.6,1.6C0.8,39.5,0,38.8,0,37.9"/>
	<g>
		<g>
			<g>
				<path class="st5" d="M52.6,90.6c-2.8,0-4.7-1.9-4.7-5.3v-6.6h2.3v6.5c0,1.9,0.9,3.1,2.4,3.1s2.4-1.2,2.4-3v-6.6h2.3v6.5
					C57.3,88.6,55.5,90.6,52.6,90.6z"/>
				<path class="st5" d="M67.6,90.4L63.3,84c-0.3-0.4-0.7-1-0.8-1.3c0,0.4,0,1.9,0,2.6v5.2h-2.3V78.7h2.2l4.1,6.2
					c0.3,0.4,0.7,1,0.8,1.3c0-0.4,0-1.9,0-2.6v-5h2.3v11.7H67.6z"/>
				<path class="st5" d="M72.9,90.4V78.7h2.3v11.7H72.9z"/>
				<path class="st5" d="M84,90.4h-2.3l-4.2-11.7h2.6l2.2,6.8c0.2,0.7,0.5,1.5,0.6,1.9c0.1-0.4,0.3-1.2,0.5-1.9l2.2-6.8h2.6L84,90.4
					z"/>
				<path class="st5" d="M90.4,90.4V78.7h8.1V81h-5.8v2h3.4v2.3h-3.4v2.8h6v2.3H90.4z"/>
				<path class="st5" d="M108,90.4l-2.1-4.2h-2.4v4.2h-2.3V78.7h5.5c2.2,0,4,1.2,4,3.7c0,1.8-0.8,2.9-2.2,3.4l2.2,4.5H108z
					 M106.6,80.9h-3.1v3h3.1c1.1,0,1.7-0.5,1.7-1.5C108.3,81.4,107.7,80.9,106.6,80.9z"/>
				<path class="st5" d="M117.2,90.6c-2,0-3.7-0.8-4.5-2.1l1.7-1.5c0.8,1,1.9,1.3,3,1.3c1.4,0,2-0.4,2-1.3c0-0.8-0.4-1.1-2.6-1.6
					c-2.2-0.5-3.7-1.2-3.7-3.5c0-2.1,1.9-3.4,4.2-3.4c1.8,0,3.2,0.7,4.3,1.8l-1.7,1.6c-0.8-0.8-1.6-1.2-2.7-1.2
					c-1.3,0-1.7,0.5-1.7,1.1c0,0.7,0.5,1,2.4,1.4s3.9,1.1,3.9,3.6C121.8,89.1,120.4,90.6,117.2,90.6z"/>
				<path class="st5" d="M124.4,90.4V78.7h2.3v11.7H124.4z"/>
				<path class="st5" d="M134.9,81v9.4h-2.3V81h-3.4v-2.3h9.1V81H134.9z"/>
				<path class="st5" d="M146.1,85.7v4.6h-2.3v-4.6l-4.4-7.1h2.7l1.7,2.8c0.4,0.7,1.1,1.9,1.3,2.3c0.2-0.4,0.8-1.6,1.3-2.3l1.7-2.8
					h2.7L146.1,85.7z"/>
				<path class="st5" d="M50.8,105.7c-1.6,0-2.9-0.7-3.6-1.7l1.4-1.2c0.7,0.8,1.5,1.1,2.4,1.1c1.1,0,1.6-0.3,1.6-1
					c0-0.6-0.3-0.9-2.1-1.3c-1.7-0.4-2.9-1-2.9-2.8c0-1.7,1.5-2.7,3.4-2.7c1.5,0,2.5,0.5,3.4,1.5l-1.4,1.3c-0.6-0.6-1.3-1-2.1-1
					c-1,0-1.3,0.4-1.3,0.8c0,0.6,0.4,0.8,1.9,1.1c1.5,0.3,3.1,0.9,3.1,2.9C54.5,104.5,53.4,105.7,50.8,105.7z"/>
				<path class="st5" d="M58.9,105.7c-1.8,0-3.2-1.5-3.2-3.7c0-2.2,1.3-3.7,3.2-3.7c1.8,0,3.2,1.5,3.2,3.7
					C62.1,104.2,60.7,105.7,58.9,105.7z M58.9,100.1c-0.9,0-1.3,0.8-1.3,1.9c0,1.1,0.4,1.9,1.3,1.9c0.9,0,1.3-0.9,1.3-1.9
					C60.2,100.9,59.7,100.1,58.9,100.1z"/>
				<path class="st5" d="M66.3,97.3c-0.5,0-0.7,0.2-0.7,0.6v0.6h1.2v1.7h-1.2v5.3h-1.9v-5.3h-0.8v-1.7h0.8v-0.8c0-1.3,0.7-1.9,2-1.9
					c0.5,0,0.8,0.1,1.2,0.2v1.5C66.7,97.4,66.5,97.3,66.3,97.3z"/>
				<path class="st5" d="M72.2,105.2c-0.3,0.2-0.9,0.4-1.4,0.4c-1.1,0-1.9-0.9-1.9-2.1v-3.3h-1.2v-1.7h1.2v-1.8l1.9-0.9v2.7h1.7v1.7
					h-1.7v2.8c0,0.7,0.2,0.8,0.7,0.8c0.3,0,0.6-0.1,1-0.5L72.2,105.2z"/>
				<path class="st5" d="M80.6,105.5h-1.5l-0.7-2.8c-0.1-0.5-0.3-1.3-0.4-1.7c-0.1,0.3-0.2,1.1-0.4,1.7l-0.7,2.8h-1.5l-2-7h1.9
					l0.6,2.6c0.1,0.5,0.3,1.3,0.3,1.6c0.1-0.3,0.2-1.1,0.4-1.6l0.7-2.6h1.5l0.7,2.6c0.1,0.5,0.3,1.3,0.4,1.6
					c0.1-0.3,0.2-1.1,0.3-1.6l0.6-2.6h1.8L80.6,105.5z"/>
				<path class="st5" d="M87.4,105.5v-0.5c-0.3,0.3-0.9,0.6-1.6,0.6c-1.3,0-2.6-0.8-2.6-2.5c0-1.6,1.3-2.3,2.9-2.3
					c0.6,0,1.1,0.1,1.4,0.3v-0.3c0-0.5-0.3-0.9-1-0.9c-0.8,0-1.3,0.1-1.9,0.5L83.7,99c0.8-0.5,1.5-0.7,2.6-0.7
					c1.7,0,2.9,0.9,2.9,2.5v4.7H87.4z M87.4,102.6c-0.3-0.2-0.6-0.3-1.3-0.3c-0.7,0-1.1,0.3-1.1,0.9c0,0.5,0.3,0.9,1.1,0.9
					c0.6,0,1.1-0.3,1.3-0.6V102.6z"/>
				<path class="st5" d="M95.1,100.6c-0.3-0.3-0.7-0.5-1.1-0.5c-0.7,0-1.2,0.3-1.2,1.5v3.8H91v-7h1.9V99c0.3-0.3,0.8-0.6,1.4-0.6
					c0.6,0,1.1,0.2,1.3,0.5L95.1,100.6z"/>
				<path class="st5" d="M102.2,102.6H98c0.1,1,0.8,1.3,1.4,1.3c0.5,0,0.9-0.2,1.2-0.5l1.3,1.1c-0.6,0.7-1.6,1.1-2.5,1.1
					c-2,0-3.3-1.4-3.3-3.7c0-2.2,1.4-3.7,3.1-3.7c1.9,0,3,1.7,3,3.7C102.2,102.3,102.2,102.5,102.2,102.6z M99.2,99.9
					c-0.7,0-1.1,0.6-1.2,1.3h2.4C100.4,100.6,100,99.9,99.2,99.9z"/>
				<path class="st5" d="M107.9,105.5v-9.4h1.9v7.5h4.7v1.9H107.9z"/>
				<path class="st5" d="M119.8,105.5v-0.5c-0.3,0.3-0.9,0.6-1.6,0.6c-1.3,0-2.6-0.8-2.6-2.5c0-1.6,1.3-2.3,2.9-2.3
					c0.6,0,1.1,0.1,1.4,0.3v-0.3c0-0.5-0.3-0.9-1-0.9c-0.8,0-1.3,0.1-1.9,0.5l-0.7-1.3c0.8-0.5,1.5-0.7,2.6-0.7
					c1.7,0,2.9,0.9,2.9,2.5v4.7H119.8z M119.8,102.6c-0.3-0.2-0.6-0.3-1.3-0.3c-0.7,0-1.1,0.3-1.1,0.9c0,0.5,0.3,0.9,1.1,0.9
					c0.6,0,1.1-0.3,1.3-0.6V102.6z"/>
				<path class="st5" d="M126.7,105.7c-0.6,0-1.2-0.2-1.5-0.5v0.4h-1.9v-8.9l1.9-0.9v3.2c0.3-0.3,0.8-0.6,1.5-0.6
					c1.5,0,2.7,1.1,2.7,3.8C129.5,104.2,128.5,105.7,126.7,105.7z M126.4,100.1c-0.6,0-0.9,0.2-1.1,0.6v2.7c0.3,0.4,0.7,0.6,1.2,0.6
					c0.7,0,1.1-0.6,1.1-1.8C127.6,100.7,127.1,100.1,126.4,100.1z"/>
				<path class="st5" d="M133.7,105.7c-1.8,0-3.2-1.5-3.2-3.7c0-2.2,1.3-3.7,3.2-3.7c1.8,0,3.2,1.5,3.2,3.7
					C136.9,104.2,135.6,105.7,133.7,105.7z M133.7,100.1c-0.9,0-1.3,0.8-1.3,1.9c0,1.1,0.4,1.9,1.3,1.9c0.9,0,1.3-0.9,1.3-1.9
					C135,100.9,134.6,100.1,133.7,100.1z"/>
				<path class="st5" d="M142.5,100.6c-0.3-0.3-0.7-0.5-1.1-0.5c-0.7,0-1.2,0.3-1.2,1.5v3.8h-1.9v-7h1.9V99c0.3-0.3,0.8-0.6,1.4-0.6
					c0.6,0,1.1,0.2,1.3,0.5L142.5,100.6z"/>
				<path class="st5" d="M147.6,105.5v-0.5c-0.3,0.3-0.9,0.6-1.6,0.6c-1.3,0-2.6-0.8-2.6-2.5c0-1.6,1.3-2.3,2.9-2.3
					c0.6,0,1.1,0.1,1.4,0.3v-0.3c0-0.5-0.3-0.9-1-0.9c-0.8,0-1.3,0.1-1.9,0.5L144,99c0.8-0.5,1.5-0.7,2.6-0.7c1.7,0,2.9,0.9,2.9,2.5
					v4.7H147.6z M147.6,102.6c-0.3-0.2-0.6-0.3-1.3-0.3c-0.7,0-1.1,0.3-1.1,0.9c0,0.5,0.3,0.9,1.1,0.9c0.6,0,1.1-0.3,1.3-0.6V102.6z
					"/>
				<path class="st5" d="M155.2,105.2c-0.3,0.2-0.9,0.4-1.4,0.4c-1.1,0-1.9-0.9-1.9-2.1v-3.3h-1.2v-1.7h1.2v-1.8l1.9-0.9v2.7h1.7
					v1.7h-1.7v2.8c0,0.7,0.2,0.8,0.7,0.8c0.3,0,0.6-0.1,1-0.5L155.2,105.2z"/>
				<path class="st5" d="M159.7,105.7c-1.8,0-3.2-1.5-3.2-3.7c0-2.2,1.3-3.7,3.2-3.7c1.8,0,3.2,1.5,3.2,3.7
					C162.9,104.2,161.5,105.7,159.7,105.7z M159.7,100.1c-0.9,0-1.3,0.8-1.3,1.9c0,1.1,0.4,1.9,1.3,1.9c0.9,0,1.3-0.9,1.3-1.9
					C161,100.9,160.6,100.1,159.7,100.1z"/>
				<path class="st5" d="M168.4,100.6c-0.3-0.3-0.7-0.5-1.1-0.5c-0.7,0-1.2,0.3-1.2,1.5v3.8h-1.9v-7h1.9V99c0.3-0.3,0.8-0.6,1.4-0.6
					c0.6,0,1.1,0.2,1.3,0.5L168.4,100.6z"/>
				<path class="st5" d="M173.3,108h-1.8l0.9-2.5l-2.7-7h2l1.2,3.4c0.2,0.5,0.4,1.2,0.5,1.5c0.1-0.3,0.3-1,0.5-1.5l1.2-3.4h2
					L173.3,108z"/>
				<path class="st5" d="M53,114c-0.3-0.6-0.9-1-1.7-1c-1.4,0-2.2,1.2-2.2,3c0,1.7,0.8,3,2.2,3c0.8,0,1.3-0.4,1.8-1.2l1.6,0.9
					c-0.6,1.3-1.8,2.1-3.5,2.1c-2.5,0-4.1-1.9-4.1-4.8c0-2.9,1.7-4.8,4.2-4.8c1.8,0,2.8,0.9,3.4,2.1L53,114z"/>
				<path class="st5" d="M61.7,117.8h-4.2c0.1,1,0.8,1.3,1.4,1.3c0.5,0,0.9-0.2,1.2-0.5l1.3,1.1c-0.6,0.7-1.6,1.1-2.5,1.1
					c-2,0-3.3-1.4-3.3-3.7c0-2.2,1.4-3.7,3.1-3.7c1.9,0,3,1.7,3,3.7C61.8,117.4,61.7,117.6,61.7,117.8z M58.7,115.1
					c-0.7,0-1.1,0.6-1.2,1.3H60C59.9,115.7,59.5,115.1,58.7,115.1z"/>
				<path class="st5" d="M67.5,120.7v-3.8c0-1.3-0.4-1.6-1.2-1.6s-1.2,0.4-1.2,1.6v3.8h-1.9v-7h1.9v0.5c0.3-0.3,0.9-0.6,1.6-0.6
					c1.8,0,2.6,1.2,2.6,3.2v4H67.5z"/>
				<path class="st5" d="M74.9,120.4c-0.3,0.2-0.9,0.4-1.4,0.4c-1.1,0-1.9-0.9-1.9-2.1v-3.3h-1.2v-1.7h1.2v-1.8l1.9-0.9v2.7h1.7v1.7
					h-1.7v2.8c0,0.7,0.2,0.8,0.7,0.8c0.3,0,0.6-0.1,1-0.5L74.9,120.4z"/>
				<path class="st5" d="M82.4,117.8h-4.2c0.1,1,0.8,1.3,1.4,1.3c0.5,0,0.9-0.2,1.2-0.5l1.3,1.1c-0.6,0.7-1.6,1.1-2.5,1.1
					c-2,0-3.3-1.4-3.3-3.7c0-2.2,1.4-3.7,3.1-3.7c1.9,0,3,1.7,3,3.7C82.4,117.4,82.4,117.6,82.4,117.8z M79.3,115.1
					c-0.7,0-1.1,0.6-1.2,1.3h2.4C80.5,115.7,80.2,115.1,79.3,115.1z"/>
				<path class="st5" d="M88,115.8c-0.3-0.3-0.7-0.5-1.1-0.5c-0.7,0-1.2,0.3-1.2,1.5v3.8h-1.9v-7h1.9v0.5c0.3-0.3,0.8-0.6,1.4-0.6
					c0.6,0,1.1,0.2,1.3,0.5L88,115.8z"/>
			</g>
		</g>
	</g>
</g>
<g>
</g>
<g>
</g>
<g>
</g>
<g>
</g>
<g>
</g>
<g>
</g>
<g>
</g>
<g>
</g>
<g>
</g>
<g>
</g>
<g>
</g>
<g>
</g>
<g>
</g>
<g>
</g>
<g>
</g>
</svg>
